<?xml version="1.0" encoding="UTF-8" standalone="no"?>
<!DOCTYPE svg PUBLIC "-//W3C//DTD SVG 1.1//EN" "http://www.w3.org/Graphics/SVG/1.1/DTD/svg11.dtd">
<svg width="100%" height="100%" viewBox="0 0 767 590" version="1.1" xmlns="http://www.w3.org/2000/svg" xmlns:xlink="http://www.w3.org/1999/xlink" xml:space="preserve" xmlns:serif="http://www.serif.com/" style="fill-rule:evenodd;clip-rule:evenodd;stroke-linejoin:round;stroke-miterlimit:2;">
    <path d="M164.899,574.001C146.941,572.906 129.491,571.562 112.478,566.991C111.544,566.74 110.491,566.561 109.76,566.001C108.087,564.721 106.578,563.225 105.003,561.817C106.682,560.216 108.144,557.602 110.077,557.187C119.622,555.138 129.289,553.652 138.919,552.008C141.962,551.489 145.027,551.094 148.209,550.624C140.761,540.529 133.032,530.686 125.984,520.378C108.885,495.373 95.741,468.313 87.076,439.328C81.825,421.767 77.659,403.807 74.285,385.787C72.174,374.515 72.121,362.809 71.738,351.279C71.398,341.079 71.262,330.8 72.118,320.647C74.409,293.511 79.44,266.894 88.402,241.064C100.098,207.351 116.81,176.327 138.547,148.134C151.817,130.922 166.912,115.352 183.332,100.945C219.661,69.07 261.461,47.652 307.845,35.34C325.234,30.725 343.33,28.522 361.229,26.17C373.287,24.585 385.589,23.808 397.738,24.17C429.669,25.122 461.094,29.592 491.733,39.224C525.851,49.951 557.281,65.834 586.007,87.021C604.936,100.983 621.902,117.092 637.433,134.809C656.888,157.002 673.16,181.283 685.871,207.83C697.207,231.504 706.04,256.152 709.955,282.26C711.99,295.833 713.512,309.492 714.931,323.147C715.665,330.198 715.931,337.324 715.957,344.418C716.087,379.87 710.55,414.38 698.535,447.808C686.739,480.625 670.715,511.172 648.872,538.399C639.779,549.735 629.356,559.999 619.685,570.881C615.682,575.384 611.215,577.926 604.947,577.084C601.52,576.623 597.979,577.002 593.196,577.002C594.353,574.88 594.859,573.131 595.988,572.009C605.86,562.205 616.045,552.71 625.744,542.739C638.928,529.184 649.54,513.648 659.054,497.37C663.463,489.826 667.496,482.061 671.894,474.041C642.656,467.689 613.183,465.029 583,463.895C585.783,466.148 588.295,467.826 590.367,469.936C594.43,474.072 594.058,476.721 588.324,479.047C580.724,482.129 572.75,484.276 565.02,487.056C559.524,489.031 553.96,491 548.823,493.72C545.787,495.328 543.522,498.393 540.911,500.802C540.947,501.471 540.984,502.139 541.02,502.808C538.74,501.328 535.52,500.307 534.501,498.214C533.783,496.738 535.543,493.362 537.08,491.606C542.654,485.237 551.084,484.743 558.419,482.062C565.538,479.46 572.858,477.415 580.036,474.967C581.796,474.366 583.346,473.149 585.076,472.168C576.942,463.6 554.594,462.871 534.742,463.423C537.411,465.034 539.296,465.745 540.579,467.05C542.291,468.792 544.239,470.86 544.659,473.061C544.846,474.042 541.74,476.424 539.809,476.914C524.586,480.781 509.263,484.257 494.02,488.054C489.22,489.249 484.572,491.054 479.854,492.58C479.855,493.082 479.856,493.584 479.858,494.087C486.348,496.725 493,499.032 499.283,502.095C505.24,505 511.437,507.964 516.409,512.211C524.56,519.174 520.537,525.212 513.436,529.004C511.171,530.214 508.674,531.051 506.207,531.808C503.977,532.492 501.643,532.834 498.887,533.427C509.158,540.453 519.217,547.012 528.914,554.067C536.599,559.659 543.865,565.831 551.249,571.831C552.037,572.471 552.362,573.68 552.902,574.625C551.788,575.09 550.682,575.579 549.552,576.002C549.261,576.112 548.879,575.956 548.561,576.024C537.063,578.471 528.993,572.576 520.208,566.1C501.612,552.393 482.664,538.963 462.772,527.269C438.958,513.269 414.011,501.193 389.543,488.308C387.966,487.478 386.294,486.824 384.647,486.133C378.799,483.679 377.985,478.438 383.124,473.736C404.724,484.08 426.58,494.299 448.193,505.007C458.47,510.099 468.292,516.111 478.303,521.736C480.838,523.159 493.38,522.284 494.053,520.027C494.596,518.208 493.378,514.826 491.804,513.618C487.953,510.663 483.521,508.417 479.18,506.16C474.307,503.627 469.212,501.522 464.335,498.996C459.663,496.576 459.539,492.629 463.773,489.533C471.077,484.191 479.843,482.985 488.285,481.064C503.446,477.614 518.698,474.566 533.912,471.35C533.971,470.786 534.031,470.222 534.091,469.658C530.168,468.439 526.246,466.171 522.323,466.17C494.56,466.167 466.796,466.63 439.032,466.943C437.033,466.965 435.033,466.956 433.034,467.006C419.751,467.336 406.465,467.581 393.188,468.081C389.692,468.213 386.583,466.973 386.451,463.869C386.3,460.315 389.62,458.296 393.165,458.086C397.649,457.821 402.161,458.019 406.66,457.995C413.37,457.96 414.038,457.574 411.87,451.494C408.841,443.001 415.068,438.804 422.367,441.746C424.02,435.315 428.268,431.319 433.819,430.974C442.273,430.447 443.777,431.845 448.41,444.437C451.876,441.414 456.182,440.907 459.878,442.808C461.49,443.637 461.52,447.54 462.254,449.999C464.528,449.999 467.9,450.057 471.269,449.984C475.308,449.896 477.327,451.894 477.203,455.948C483.093,455.948 488.576,456.078 494.049,455.911C499.311,455.751 504.564,455.283 510.621,454.9C500.068,438.538 498.433,421.576 505.116,404.147C509.417,392.93 516.899,383.75 527.19,377.441C549.239,363.924 574.663,367.247 591.866,382.37C613.46,401.354 617.108,430.67 601.895,454.397C604.218,454.269 606.36,454.151 608.501,454.033C608.186,453.661 607.871,453.289 607.556,452.917C610.846,449.596 613.671,445.517 617.543,443.148C622.328,440.22 628.903,442.756 630.373,448.099C631.904,453.662 635.499,453.975 639.849,453.996C641.479,454.004 643.11,453.997 644.728,453.997C644.444,441.674 652.059,438.639 661.525,442.996C662.018,441.284 662.577,439.603 662.984,437.886C663.931,433.889 666.235,430.965 670.241,430.083C674.633,429.117 676.978,432.628 679.738,435.178C680.995,436.339 682.792,437.957 684.085,437.75C685.41,437.539 687.007,435.528 687.469,433.997C690.16,425.099 692.552,416.111 695.172,406.696C676.729,402.688 660.57,394.72 644.808,385.932C631.643,378.592 618.798,370.682 605.664,363.285C594.585,357.045 582.945,352.035 570.278,350.041C555.725,347.75 541.642,350.204 528.09,355.491C511.109,362.116 495.957,372.133 480.633,381.819C461.155,394.13 441.492,406.199 420.065,414.866C410.972,418.543 401.329,420.857 391.874,423.81C390.09,416.104 390.2,415.684 396.839,413.638C418.867,406.849 438.533,395.294 458.042,383.435C475.344,372.917 492.209,361.616 509.943,351.894C522.388,345.071 535.885,340.55 550.381,338.808C572.532,336.146 591.735,343.672 610.339,353.949C628.955,364.231 647.16,375.273 665.952,385.211C675.556,390.29 686.051,393.684 697.852,398.542C698.961,379.765 699.894,362.527 701.072,345.306C701.302,341.941 700.104,339.779 697.537,338.013C674.786,322.358 651.446,307.769 624.821,299.473C608.568,294.409 591.845,291.919 574.837,293.092C554.115,294.52 534.243,300.195 516.439,310.629C492.661,324.566 469.928,340.275 446.514,354.85C430.569,364.777 414.229,374.068 398.053,383.624C397.661,383.856 397.132,383.857 396.664,383.967C395.096,376.464 395.21,376.636 402.682,371.685C423.003,358.217 443.209,344.576 463.478,331.031C485.015,316.638 506.405,302.003 530.808,292.612C546.018,286.758 561.609,282.946 578.006,282.995C578.839,282.998 579.672,282.978 580.504,282.937C589.359,282.502 592.052,279.385 590.992,270.807C590.593,267.585 582.137,262.75 579.35,264.232C569.762,269.33 563.655,267.273 557.751,262.116C550.097,255.43 548.297,246.705 551.702,237.749C554.951,229.205 561.068,224.506 570.099,224.116C573.219,223.982 574.726,222.999 576.043,220.265C581.749,208.415 594.14,202.967 605.834,207.074C611.673,209.124 615.824,213.268 618.276,218.853C619.563,221.785 621.588,223 624.435,224.065C641.895,230.599 646.029,252.896 632.081,264.466C625.995,269.515 617.036,270.275 608.917,263.953C600.939,268.838 605.14,276.741 603.955,282.822C620.848,288.259 637.415,293.591 654.477,299.082C654.943,295.856 655.539,291.744 656.194,287.214C654.76,287.214 653.626,286.989 652.618,287.251C646.041,288.96 641.467,286.274 639.348,279.342C637.718,274.011 641.09,267.789 646.509,266.003C647.677,265.619 649.092,265.26 649.827,264.404C656.206,256.978 666.285,258.701 670.036,267.922C670.455,268.952 670.89,270.302 671.729,270.782C677.242,273.933 676.917,279.114 675.505,283.777C673.997,288.758 669.41,290.241 664.39,290.019C664.075,290.005 663.756,290.115 663.435,290.17C663.008,294.415 662.369,298.654 662.313,302.901C662.3,303.927 664.059,305.225 665.265,305.98C675.708,312.514 686.227,318.928 696.675,325.454C698.034,326.302 699.121,327.584 701.28,329.507C698.549,282.641 686.788,239.444 664.313,199.256C641.608,158.657 611.838,124.207 574.015,97.019C467.255,20.277 332.855,25.225 239.04,79.683C126.658,144.918 86.623,261.473 87.46,331.362C92.193,330.254 96.959,328.736 101.84,328.084C110.652,326.907 117.357,331.554 124.154,336.453C130.58,341.084 137.437,345.296 144.587,348.669C148.579,350.553 149.839,352.827 149.958,356.981C137.801,357.383 128.019,352.302 118.925,345.408C113.181,341.054 107.65,336.31 99.702,336.997C87.569,338.046 84.926,342.197 86.746,351.752C87.881,357.711 87.47,363.95 88.03,370.038C88.853,378.998 89.924,387.935 90.767,395.746C99.541,397.233 107.521,398.635 115.528,399.863C116.327,399.986 117.437,399.216 118.142,398.575C119.607,397.24 120.73,395.492 122.29,394.304C127.618,390.247 132.851,391.781 134.939,398.089C136.051,401.451 136.628,404.99 137.554,408.899C141.607,409.87 146.159,410.821 150.623,412.08C153.714,412.952 157.305,414.55 155.768,418.376C154.504,421.522 151.664,423.171 147.201,422.275C138.718,420.571 130.018,419.874 121.382,419.036C113.858,418.306 106.294,417.999 98.755,417.419C96.095,417.214 95.952,417.783 96.661,420.434C102.756,443.224 111.555,464.921 122.485,485.781C133.489,506.779 147.342,525.819 162.433,544.035C166.019,548.365 170.065,549.885 175.424,548.741C177.473,548.303 179.604,548.249 183.027,547.874C177.079,543.483 171.708,539.888 166.788,535.755C163.554,533.039 160.775,529.701 158.155,526.358C155.851,523.417 156.944,520.47 159.406,518.081C168.695,509.067 171.885,497.356 173.967,485.185C174.823,480.179 175.23,475.096 176.056,470.083C176.336,468.385 176.804,465.988 177.994,465.29C184.63,461.4 181.723,455.008 182.607,449.572C173.328,450.689 164.434,449.194 156.058,445.37C149.559,442.404 150.089,441.053 153.177,434.974C160.548,420.466 167.155,405.568 173.89,390.746C174.368,389.692 173.847,387.476 172.981,386.631C164.71,378.566 161.296,368.676 159.809,357.347C157.135,336.977 161.933,318.182 169.676,299.351C163.532,297.836 164.672,293.55 165.958,288.924C171.059,270.577 178.281,253.325 191.444,239.147C193.523,236.907 196.209,235.231 198.71,233.218C197.295,228.224 199.287,223.787 204.317,219.93C212.326,213.787 221.786,211.847 231.335,209.96C234.879,209.26 240.838,210.341 240.36,205.136C239.957,200.75 234.485,203.949 231.429,203.014C231.124,202.921 230.766,203.003 230.433,203.002C221.099,202.971 218.877,199.415 223.045,190.837C213.558,180.979 212.891,169.723 217.876,157.402C218.791,155.139 218.054,152.185 217.991,149.551C217.786,141.062 220.479,133.415 225.111,126.488C232.366,115.637 242.991,110.174 256.74,107.887C244.264,119.258 234.46,131.04 237.159,148.887C248.029,150.603 252.885,158.103 253.87,168.123C254.832,177.902 251.61,186.385 242.217,192.006C250.356,194.073 257.373,189.422 261.036,180.364C266.119,167.794 261.203,153.66 249.279,147.079C247.189,145.926 246.206,145.22 246.858,142.403C249.964,128.974 256.12,117.43 266.957,108.745C268.542,107.474 271.377,106.724 273.338,107.137C282.977,109.166 292.961,110.607 301.934,114.373C308.078,116.952 312.717,123.06 318.127,127.47C320.115,129.089 322.436,130.292 324.503,131.823C325.46,132.531 326.171,133.57 326.993,134.459C326.011,135.334 325.163,136.51 324.019,137.024C321.119,138.324 318.085,139.328 315.125,140.442C317.389,147.166 317.564,153.24 316.013,159.722C315.46,162.037 318.17,165.275 319.73,167.889C320.436,169.071 322.438,169.528 323.028,170.722C323.956,172.601 324.963,175.04 324.463,176.83C324.077,178.214 321.5,179.67 319.775,179.839C317.04,180.106 316.183,180.906 315.908,183.685C315.182,191.016 314.415,198.398 312.762,205.551C312.193,208.013 309.31,210.949 306.858,211.75C302.292,213.243 297.242,213.202 292.444,214.077C290.942,214.352 288.52,215.401 288.421,216.303C288.235,218.006 288.916,220.439 290.152,221.536C293.051,224.106 296.649,225.873 299.658,228.34C301.823,230.115 305.036,232.25 300.49,235.35C312.674,244.649 315.793,258.563 319.973,271.881C323.45,282.962 326.377,294.231 330.275,305.156C331.361,308.198 334.641,311.001 337.606,312.713C343.441,316.082 349.842,318.453 355.84,321.562C358.169,322.769 359.803,325.568 362.183,326.369C365.59,327.518 369.478,328.242 373.007,327.829C381.163,326.875 381.086,326.549 382.016,317.374C382.458,313.01 385.304,311.983 389.288,311.913C393.466,311.839 394.856,313.961 394.982,317.585C395.027,318.897 395.228,320.401 394.699,321.5C392.975,325.079 394.185,327.231 397.059,329.718C402.602,334.513 400.213,341.201 399.606,346.978C399.015,352.605 397.356,357.906 392.089,362.131C389.435,364.26 389.729,370.286 389.04,374.606C386.961,387.645 384.996,400.704 383.1,413.771C381.645,423.795 380.428,433.853 378.985,443.878C377.101,456.973 375.036,470.043 373.167,483.141C371.686,493.517 370.411,503.922 368.993,514.308C367.754,523.385 366.398,532.446 365.203,541.529C364.947,543.472 365.166,545.478 365.166,547.579C375.301,548.203 385.457,548.827 395.935,549.472C396.297,541.515 395.58,533.52 389.46,526.157C400.515,525.237 399.928,534.839 403.667,540.641C404.03,534.172 404.36,528.303 404.685,522.508C408.969,522.144 409.737,522.775 409.962,527.204C410.151,530.947 410.001,534.707 410.001,538.837C414.416,536.437 413.735,528.609 420.32,530.098C418.118,536.84 415.929,543.544 413.511,550.947C418.134,551.685 422.276,552.206 426.358,553.027C434.288,554.62 442.221,556.233 450.062,558.202C451.588,558.585 452.698,560.627 453.999,561.904C452.641,563.283 451.484,565.531 449.891,565.9C440.098,568.17 430.276,570.536 420.33,571.875C406.784,573.698 393.127,574.735 379.5,575.901C372.561,576.495 365.585,576.869 358.622,576.939C317.316,577.357 276.009,577.876 234.702,577.885C218.465,577.889 202.222,576.775 185.993,575.946C179.105,575.594 172.246,574.667 164.899,574.001M576.552,393.437C585.888,399.029 591.185,407.702 592.814,417.994C595.198,433.07 589.095,445.271 577.629,455.402C580.842,454.747 584.238,454.061 586.245,452.015C595.604,442.474 598.952,431.149 597.21,417.596C594.214,394.278 570.111,377.204 547.228,382.992C518.581,390.239 504.105,422.993 522.483,448.881C526.236,454.166 528.425,455.207 534.146,454.507C524.479,446.25 518.982,436.287 519.624,423.553C520.247,411.187 524.721,400.975 536.627,393.456L536.627,454.066C537.418,454.065 538.209,454.063 539,454.061C539.004,433.454 539.004,412.847 539.001,391.22C543.869,389.982 549.552,388.538 555.665,386.984L555.665,454.933C556.129,454.929 556.594,454.926 557.058,454.922L557.058,386.489C563.722,388.548 569.519,390.296 575.267,392.193C575.741,392.349 575.881,393.517 575.375,393.885C574.594,394.151 573.135,394.408 573.131,394.685C573.01,403.069 573.032,411.455 573.032,420.584C574.327,419.687 575.472,419.274 575.486,418.827C575.742,410.567 575.862,402.304 576.552,393.437M373.999,394.59C375.009,385.119 376.147,375.658 376.88,366.166C376.981,364.858 375.307,362.473 374.065,362.167C368.924,360.901 363.634,360.241 358.168,359.32C357.855,360.333 357.361,361.699 357.014,363.102C355.674,368.513 353.064,370.087 347.799,367.978C343.603,366.297 339.513,364.252 335.6,361.983C327.415,357.238 319.377,352.238 310.791,347.047C311.611,350.615 312.376,353.579 312.967,356.577C317.743,380.811 322.41,405.067 327.278,429.282C329.249,439.083 327.73,442.501 318.901,445.929C319.093,446.695 319.355,447.468 319.475,448.263C320.478,454.934 321.975,461.613 316.317,467.295C314.787,468.832 313.463,471.089 313.109,473.194C311.272,484.144 309.737,495.145 308.181,506.141C307.193,513.125 308.395,519.071 315.196,523.105C318.692,525.178 321.357,528.607 324.693,531.016C326.645,532.425 329.134,533.732 331.456,533.875C340.466,534.432 345.571,538.577 346.363,546.995C348.291,546.995 350.305,547.245 352.208,546.895C353.229,546.707 354.744,545.591 354.874,544.72C356.378,534.663 357.728,524.581 358.978,514.488C360.107,505.373 360.958,496.223 362.119,487.112C363.65,475.084 365.4,463.084 366.987,451.062C368.124,442.452 369.138,433.826 370.224,425.209C371.473,415.306 372.74,405.405 373.999,394.59M253.133,435.368C253.044,433.715 252.955,432.062 252.866,430.409C251.458,433.324 250.744,436.389 249.998,439.445C248.348,446.209 247.057,453.096 244.83,459.666C243.985,462.158 241.069,465.528 238.92,465.663C234.687,465.928 232.786,467.404 230.395,470.85C223.242,481.16 215.49,491.08 207.55,500.808C201.987,507.624 201.484,511.126 206.659,518.437C209.478,522.422 212.087,526.571 215.126,530.378C216.378,531.948 218.356,533.296 220.271,533.913C226.85,536.031 234.64,536.369 235.253,545.998C244.96,545.998 254.446,545.908 263.929,546.05C266.989,546.096 267.903,544.937 268.086,541.98C268.345,537.761 269.355,533.594 269.773,529.377C270.604,520.971 272.233,512.486 271.724,504.143C271.095,493.823 267.303,483.762 268.92,473.145C269.121,471.827 268.234,469.897 267.212,468.922C263.674,465.546 263.215,461.723 264.948,457.357C257.461,457.905 255.504,456.079 254.952,448.862C254.629,444.634 253.84,440.441 253.133,435.368M237.121,155.001C226.915,155.001 224.56,156.465 222.356,165.265C221.648,168.095 221.843,171.231 222.055,174.196C222.486,180.236 226.821,186.153 230.809,186.579C240.203,187.583 243.682,185.493 246.017,176.648C246.875,173.398 247.467,169.689 246.758,166.507C245.666,161.601 244.443,156.113 237.121,155.001M573.671,423.438C574.007,425.687 573.811,428.249 574.882,430.066C575.505,431.123 578.518,431.777 579.807,431.19C581.534,430.403 583.685,428.267 583.729,426.658C583.781,424.753 582.165,422.366 580.588,420.952C577.941,418.579 575.853,420.808 573.671,423.438M573.002,442.566L573.002,453.851C574.732,453.417 575.907,452.517 575.897,451.631C575.826,445.46 576.578,439.192 575.468,433.103C574.646,433.129 573.824,433.155 573.002,433.181C573.002,435.991 573.002,438.801 573.002,442.566M599.996,255.388L599.996,260.073C600.601,260.353 601.205,260.633 601.809,260.913C603.813,258.333 605.818,255.753 607.822,253.173C607.236,252.461 606.649,251.75 606.063,251.039C604.042,252.207 602.02,253.374 599.996,255.388M589.349,260.453L589.349,252.138L583.991,252.138C585.706,255.327 587.194,258.096 589.349,260.453Z" style="fill:rgb(235,230,215);fill-rule:nonzero;"/>
    <path d="M651.11,413.294C657.179,416.834 658.872,422.195 659.045,428.69L623.057,428.69C623.128,422.48 622.255,416.392 625.737,410.575C628.133,406.571 631.103,404.192 635.63,405.133C639.917,406.024 642.167,409.169 642.079,413.571C645.081,413.408 647.917,413.255 651.11,413.294Z" style="fill:rgb(235,230,215);fill-rule:nonzero;"/>
    <path d="M489.828,414.523C490.838,420.357 491.696,425.814 492.619,431.689L460.293,431.689C459.623,423.453 459.866,423.157 467.714,422.882C468.264,415.639 469.109,408.131 477.878,406.106C483.273,404.859 486.054,407.168 489.828,414.523Z" style="fill:rgb(235,230,215);fill-rule:nonzero;"/>
    <path d="M666.054,355.903C667.999,355.649 669.783,354.93 671.008,355.473C671.787,355.818 672.341,359.033 671.964,359.262C668.037,361.644 664.029,364.437 657.947,360.939C660.849,359.07 663.253,357.521 666.054,355.903Z" style="fill:rgb(235,230,215);fill-rule:nonzero;"/>
    <path d="M659.633,352.633C656.326,358.314 651.326,359.353 645.679,358.935C647.589,352.27 653.989,349.259 659.633,352.633Z" style="fill:rgb(235,230,215);fill-rule:nonzero;"/>
    <path d="M604.786,512.662C600.543,507.258 600.562,503.256 604.575,498.067C609.305,503.12 609.442,507.114 604.786,512.662Z" style="fill:rgb(235,230,215);fill-rule:nonzero;"/>
    <path d="M575.003,539.995C574.85,541.034 574.849,541.763 574.517,542.281C573.486,543.893 572.329,545.424 571.22,546.987C570.15,545.114 568.179,543.225 568.212,541.372C568.267,538.306 569.613,535.263 570.415,532.211C570.883,532.187 571.351,532.164 571.818,532.14C572.88,534.623 573.942,537.105 575.003,539.995Z" style="fill:rgb(235,230,215);fill-rule:nonzero;"/>
    <path d="M557.01,540.691C556.525,538.643 556.157,536.972 555.736,535.063C562.625,536.319 564.17,538.243 564.784,547.546C562.231,545.387 559.679,543.227 557.01,540.691Z" style="fill:rgb(235,230,215);fill-rule:nonzero;"/>
    <path d="M586.994,539.812C584.552,543.634 581.905,546.734 575.677,547.157C578.665,542.839 580.765,539.465 583.265,536.42C583.935,535.604 585.825,535.79 587.154,535.516C587.105,536.819 587.056,538.122 586.994,539.812Z" style="fill:rgb(235,230,215);fill-rule:nonzero;"/>
    <path d="M598.97,510.993C593.843,511.888 590.935,508.966 589.077,501.456C593.867,500.783 596.595,502.595 597.994,507.368C598.31,508.447 598.648,509.519 598.97,510.993Z" style="fill:rgb(235,230,215);fill-rule:nonzero;"/>
    <path d="M610.281,511.237C612.416,506.662 613.015,501.157 619.443,500.872C620.544,507.625 616.639,512.037 610.281,511.237Z" style="fill:rgb(235,230,215);fill-rule:nonzero;"/>
    <path d="M501.218,127.397C513.312,113.459 532.891,113.648 542.824,125.621C546.451,129.994 548.679,135.683 550.857,141.051C552.422,144.909 554.061,145.81 557.831,143.971C567.041,139.479 574.169,142.566 576.479,152.28C577.608,157.025 580.508,156.401 583.588,155.578C588.432,154.283 592.852,154.73 596.203,158.625C597.26,159.852 597.798,162.232 597.389,163.769C597.114,164.802 594.761,165.9 593.33,165.911C574.367,166.065 555.402,166.041 536.438,166.043C507.132,166.047 477.827,166.065 448.522,165.964C446.749,165.958 443.631,165.21 443.476,164.373C443.104,162.362 443.568,159.744 444.677,157.993C448.39,152.132 454.577,151.868 460.164,153.457C465.072,154.853 466.72,152.563 467.838,149.141C471.348,138.397 478.335,135.199 488.345,140.06C493.862,142.738 493.709,142.675 496.199,136.583C497.465,133.487 499.399,130.663 501.218,127.397Z" style="fill:rgb(235,230,215);fill-rule:nonzero;"/>
    <path d="M331.634,456.494C339.914,459.283 347.986,462.01 355.658,465.594C356.716,466.088 355.934,470.842 355.602,473.575C355.562,473.904 352.827,474.409 351.614,474.007C345.32,471.921 339.072,469.677 332.89,467.276C326.788,464.907 326.384,461.801 331.634,456.494Z" style="fill:rgb(235,230,215);fill-rule:nonzero;"/>
    <path d="M365.819,389.588C366.554,398.962 366.433,399.318 357.315,400.94C351.719,401.936 346.028,402.458 340.359,402.95C337.366,403.21 335.262,401.451 335.103,398.509C334.954,395.745 336.99,395.314 339.598,394.849C348.343,393.29 356.981,391.138 365.819,389.588Z" style="fill:rgb(235,230,215);fill-rule:nonzero;"/>
</svg>
